<svg width="103" height="133" viewBox="0 0 103 133" fill="none" xmlns="http://www.w3.org/2000/svg">
<path d="M102.479 51.2672C102.33 29.3622 88.27 9.80517 67.548 2.69217C46.646 -4.48283 23.188 3.34817 10.045 20.8492C-3.74298 39.2072 -2.88298 65.1572 11.122 83.0872C14.62 87.5652 18.946 91.3572 23.7 94.4472C26.125 96.0232 28.959 97.0402 31.165 98.9172C33.372 100.794 34.101 103.532 34.335 106.304C34.833 112.181 33.332 118.269 34.786 124.056C35.959 128.725 41.019 130.765 45.246 131.701C52.385 133.28 65.078 132.525 67.728 124.056C70.35 115.673 63.739 102.132 73.878 97.2292C91.343 88.7842 102.339 70.5202 102.479 51.2672C102.484 50.6222 101.484 50.6222 101.479 51.2672C101.386 64.0442 96.601 76.1912 87.928 85.5772C83.798 90.0452 78.802 93.6462 73.373 96.3662C69.325 98.3942 67.549 101.928 67.179 106.304C66.666 112.351 68.852 119.615 66.188 125.289C63.353 131.329 53.315 131.649 47.797 131.101C44.492 130.772 40.982 129.764 38.347 127.682C35.703 125.592 35.301 122.415 35.204 119.256C35.034 113.707 36.326 107.728 34.605 102.327C33.079 97.5372 28.061 96.0142 24.204 93.5832C18.912 90.2472 14.336 85.8232 10.63 80.7982C3.21002 70.7372 0.0700158 58.0712 1.33702 45.6952C3.78602 21.7892 24.018 2.94517 47.755 1.16417C61.639 0.12317 75.421 5.19917 85.594 14.6172C95.755 24.0252 101.386 37.4852 101.479 51.2672C101.483 51.9122 102.483 51.9132 102.479 51.2672Z" fill="#FAAD3A"/>
</svg>
